<?xml version="1.0" encoding="utf-8"?>
<!-- Generator: Adobe Illustrator 19.0.0, SVG Export Plug-In . SVG Version: 6.00 Build 0)  -->
<svg version="1.1" id="Layer_1" xmlns="http://www.w3.org/2000/svg" xmlns:xlink="http://www.w3.org/1999/xlink" x="0px" y="0px"
	 viewBox="0 0 900 900" style="enable-background:new 0 0 900 900;" xml:space="preserve">
<style type="text/css">
	.st0{fill:#D9A505;}
	.st1{font-family:'Cubano-Regular';}
	.st2{font-size:160.7995px;}
	.st3{fill:#999999;}
	.st4{clip-path:url(#XMLID_30_);}
	.st5{fill:#B3B3B3;}
	.st6{fill:#FED638;}
	.st7{fill:#FCFFC0;}
</style>
<text id="XMLID_1_" transform="matrix(1 0 0 1 123.667 850.7627)" class="st0 st1 st2">KASOSYO</text>
<circle id="XMLID_6_" class="st3" cx="453.7" cy="362.5" r="337.6"/>
<g id="XMLID_13_">
	<defs>
		<circle id="XMLID_12_" cx="453.7" cy="362.5" r="337.6"/>
	</defs>
	<clipPath id="XMLID_30_">
		<use xlink:href="#XMLID_12_"  style="overflow:visible;"/>
	</clipPath>
	<g id="XMLID_26_" class="st4">
		<rect id="XMLID_25_" x="139" y="30" class="st5" width="552" height="14"/>
		<rect id="XMLID_14_" x="162" y="80" class="st5" width="556" height="14"/>
		<rect id="XMLID_15_" x="189" y="130" class="st5" width="552" height="14"/>
		<rect id="XMLID_16_" x="212" y="180" class="st5" width="556" height="14"/>
		<rect id="XMLID_17_" x="239" y="230" class="st5" width="552" height="14"/>
		<rect id="XMLID_18_" x="262" y="278" class="st5" width="556" height="13"/>
		<rect id="XMLID_19_" x="286" y="328" class="st5" width="555" height="13"/>
		<rect id="XMLID_20_" x="286" y="378" class="st5" width="555" height="13"/>
		<rect id="XMLID_21_" x="262" y="428" class="st5" width="556" height="13"/>
		<rect id="XMLID_22_" x="262" y="478" class="st5" width="556" height="13"/>
		<rect id="XMLID_23_" x="239" y="528" class="st5" width="552" height="13"/>
		<rect id="XMLID_24_" x="212" y="578" class="st5" width="556" height="13"/>
		<rect id="XMLID_27_" x="189" y="628" class="st5" width="552" height="13"/>
		<rect id="XMLID_28_" x="112" y="678" class="st5" width="556" height="13"/>
	</g>
</g>
<ellipse id="XMLID_11_" class="st5" cx="433.8" cy="362.5" rx="317.7" ry="337.6"/>
<ellipse id="XMLID_8_" class="st0" cx="433.8" cy="363.2" rx="264.6" ry="281.1"/>
<ellipse id="XMLID_9_" class="st6" cx="429.1" cy="365" rx="231.5" ry="246"/>
<g id="XMLID_10_">
	<path id="XMLID_5_" class="st7" d="M436.7,347.8L436.7,347.8c0.2,0.1,0.3,0.2,0.4,0.4c7.5,7.9,19.5,7.9,27,0.1
		c7.5-7.9,7.5-20.8,0.1-28.7c-0.1-0.1-0.2-0.2-0.3-0.4l0,0l-34.1-36.6l0,0c-0.1-0.1-0.2-0.2-0.2-0.2l0,0l0,0c-3.3-3.7-5.6-6.3-8-8.8
		c-20.8-21.6-45.6-30.4-74.5-25.4c-38.6,6.6-68.9,44.2-69.1,85.9c-0.1,26,9,48,26.2,66.4c12.9,13.7,25.7,27.5,38.5,41.2
		c0.9-2.6,2.4-5.1,4.4-7.2c0.3-0.4,0.6-0.7,0.9-0.9l84.7-89.7L436.7,347.8z"/>
	<path id="XMLID_4_" class="st7" d="M455,476c-7.5-7.9-7.4-20.8,0.1-28.7c0.1-0.1,0.2-0.2,0.3-0.4l-0.1-0.1l39.3-41.6l-3-3.2
		l-69.6,73.7c-7.5,7.9-19.6,7.9-27.1-0.1c-7.5-7.9-7.5-20.8,0.1-28.8l0,0l69.5-73.7l-3-3.2l-87.2,92.5l-0.1-0.1
		c-0.1,0.1-0.2,0.3-0.3,0.4c-2,2.1-4.4,3.7-6.9,4.7c9.2,9.9,18.5,19.8,27.8,29.7c19.5,20.8,47.6,20.7,67.2-0.1
		c4.1-4.3,11-11.7,19.2-20.5C473.7,483.9,462.2,483.7,455,476z"/>
</g>
<g id="XMLID_7_">
	<path id="XMLID_3_" class="st0" d="M555.9,272.1c-32.4-34.5-84.9-34.6-117.4-0.2l-9.1,10.3l34.4,36.9l0,0c0.1,0.1,0.2,0.2,0.3,0.4
		c7.5,7.9,7.4,20.8-0.1,28.7c-7.5,7.9-19.5,7.9-27-0.1c-0.1-0.1-0.2-0.2-0.3-0.4l-0.1,0.1l-4-4.3l-84.7,89.7
		c-0.3,0.3-0.7,0.6-0.9,0.9c-7.5,7.9-7.5,20.8-0.1,28.6c7.5,7.9,19.5,7.9,27,0.1c0.1-0.1,0.2-0.3,0.3-0.4l0.1,0.1l87.2-92.4l3,3.2
		L395.1,447l0,0c-7.5,7.9-7.5,20.8-0.1,28.8c7.5,7.9,19.5,8,27.1,0.1l69.5-73.7l3,3.2L455.3,447l0.1,0.1c-0.1,0.1-0.2,0.2-0.3,0.4
		c-7.5,7.9-7.5,20.8-0.1,28.7c7.5,7.9,19.5,7.9,27,0.1c0.1-0.1,0.2-0.2,0.3-0.4l0,0c0,0,46.3-49.6,76.3-82
		C588.4,361.6,587.3,305.6,555.9,272.1z"/>
	<path id="XMLID_2_" class="st0" d="M374.1,399.2c0.4-0.4,0.7-0.8,1.1-1.2l0.1,0.1l54.1-58l-26.9-28.7l-54.1,58.1l0.1,0.1
		c-0.4,0.4-0.8,0.8-1.2,1.2c-7.5,7.9-7.5,20.7-0.1,28.6C354.6,407.1,366.7,407.1,374.1,399.2z"/>
</g>
</svg>
