<?xml version="1.0" encoding="utf-8"?>
<!-- Generator: Adobe Illustrator 19.0.0, SVG Export Plug-In . SVG Version: 6.00 Build 0)  -->
<svg version="1.1" id="Layer_1" xmlns="http://www.w3.org/2000/svg" xmlns:xlink="http://www.w3.org/1999/xlink" x="0px" y="0px"
	 viewBox="0 0 900 900" style="enable-background:new 0 0 900 900;" xml:space="preserve">
<style type="text/css">
	.st0{fill:#D9A505;}
	.st1{font-family:'Cubano-Regular';}
	.st2{font-size:170.7499px;}
	.st3{fill:#999999;}
	.st4{clip-path:url(#XMLID_30_);}
	.st5{fill:#B3B3B3;}
	.st6{fill:#FED638;}
	.st7{fill:#FCFFC0;}
</style>
<text id="XMLID_1_" transform="matrix(1 0 0 1 100.2096 879.7733)" class="st0 st1 st2">KASOSYO</text>
<circle id="XMLID_6_" class="st3" cx="463.7" cy="353.5" r="337.6"/>
<g id="XMLID_13_">
	<defs>
		<circle id="XMLID_12_" cx="463.7" cy="353.5" r="337.6"/>
	</defs>
	<clipPath id="XMLID_30_">
		<use xlink:href="#XMLID_12_"  style="overflow:visible;"/>
	</clipPath>
	<g id="XMLID_26_" class="st4">
		<rect id="XMLID_25_" x="149" y="21" class="st5" width="552" height="14"/>
		<rect id="XMLID_14_" x="172" y="71" class="st5" width="556" height="14"/>
		<rect id="XMLID_15_" x="199" y="121" class="st5" width="552" height="14"/>
		<rect id="XMLID_16_" x="222" y="171" class="st5" width="556" height="14"/>
		<rect id="XMLID_17_" x="249" y="221" class="st5" width="552" height="14"/>
		<rect id="XMLID_18_" x="272" y="269" class="st5" width="556" height="13"/>
		<rect id="XMLID_19_" x="296" y="319" class="st5" width="555" height="13"/>
		<rect id="XMLID_20_" x="296" y="369" class="st5" width="555" height="13"/>
		<rect id="XMLID_21_" x="272" y="419" class="st5" width="556" height="13"/>
		<rect id="XMLID_22_" x="272" y="469" class="st5" width="556" height="13"/>
		<rect id="XMLID_23_" x="249" y="519" class="st5" width="552" height="13"/>
		<rect id="XMLID_24_" x="222" y="569" class="st5" width="556" height="13"/>
		<rect id="XMLID_27_" x="199" y="619" class="st5" width="552" height="13"/>
		<rect id="XMLID_28_" x="122" y="669" class="st5" width="556" height="13"/>
	</g>
</g>
<circle id="XMLID_11_" class="st5" cx="423.9" cy="353.5" r="337.6"/>
<circle id="XMLID_8_" class="st0" cx="423.9" cy="354.2" r="281.1"/>
<circle id="XMLID_9_" class="st6" cx="418.9" cy="356" r="246"/>
<g id="XMLID_10_">
	<path id="XMLID_5_" class="st7" d="M427,338.8L427,338.8c0.2,0.1,0.3,0.2,0.4,0.4c7.9,7.9,20.8,7.9,28.7,0.1
		c7.9-7.9,7.9-20.8,0.1-28.7c-0.1-0.1-0.2-0.2-0.4-0.4l0,0l-36.2-36.6l0,0c-0.1-0.1-0.2-0.2-0.2-0.2l0,0l0,0
		c-3.5-3.7-5.9-6.3-8.5-8.8c-22.1-21.6-48.5-30.4-79.1-25.4c-41.1,6.6-73.2,44.2-73.4,85.9c-0.1,26,9.5,48,27.9,66.4
		c13.7,13.7,27.3,27.5,41,41.2c1-2.6,2.5-5.1,4.7-7.2c0.4-0.4,0.7-0.7,1-0.9l89.9-89.7L427,338.8z"/>
	<path id="XMLID_4_" class="st7" d="M446.5,467c-7.9-7.9-7.9-20.8,0.1-28.7c0.1-0.1,0.2-0.2,0.4-0.4l-0.1-0.1l41.8-41.6l-3.2-3.2
		l-73.9,73.7c-7.9,7.9-20.8,7.9-28.8-0.1c-7.9-7.9-7.9-20.8,0.1-28.8l0,0l73.9-73.7l-3.1-3.2l-92.7,92.5l-0.1-0.1
		c-0.1,0.1-0.2,0.3-0.4,0.4c-2.1,2.1-4.7,3.7-7.3,4.7c9.8,9.9,19.7,19.8,29.5,29.7c20.7,20.8,50.5,20.7,71.4-0.1
		c4.3-4.3,11.7-11.7,20.4-20.5C466.4,474.9,454.1,474.7,446.5,467z"/>
</g>
<g id="XMLID_7_">
	<path id="XMLID_3_" class="st0" d="M553.6,263.1c-34.4-34.5-90.2-34.6-124.7-0.2l-9.7,10.3l36.5,36.9l0,0c0.1,0.1,0.2,0.2,0.4,0.4
		c7.9,7.9,7.9,20.8-0.1,28.7c-7.9,7.9-20.8,7.9-28.7-0.1c-0.1-0.1-0.2-0.2-0.4-0.4l-0.1,0.1l-4.3-4.3l-89.9,89.7
		c-0.4,0.3-0.7,0.6-1,0.9c-7.9,7.9-7.9,20.8-0.1,28.6c7.9,7.9,20.8,7.9,28.6,0.1c0.1-0.1,0.2-0.3,0.4-0.4l0.1,0.1l92.7-92.4l3.1,3.2
		L382.8,438l0,0c-7.9,7.9-8,20.8-0.1,28.8c7.9,7.9,20.8,8,28.8,0.1l73.9-73.7l3.2,3.2L446.8,438l0.1,0.1c-0.1,0.1-0.2,0.2-0.4,0.4
		c-7.9,7.9-7.9,20.8-0.1,28.7c7.9,7.9,20.8,7.9,28.7,0.1c0.1-0.1,0.2-0.2,0.4-0.4l0,0c0,0,49.2-49.6,81.1-82
		C588.1,352.6,587,296.6,553.6,263.1z"/>
	<path id="XMLID_2_" class="st0" d="M360.5,390.2c0.4-0.4,0.8-0.8,1.2-1.2l0.1,0.1l57.5-58l-28.6-28.7l-57.5,58.1l0.1,0.1
		c-0.4,0.4-0.9,0.8-1.2,1.2c-7.9,7.9-7.9,20.7-0.1,28.6C339.7,398.1,352.6,398.1,360.5,390.2z"/>
</g>
</svg>
